<svg width="259" height="110" viewBox="0 0 259 110" fill="none" xmlns="http://www.w3.org/2000/svg">
<path d="M70.5 62L85.6554 88.25H55.3446L70.5 62Z" fill="#D43F3C"/>
<path d="M55.5 36L70.5 62H40.5L55.5 36Z" fill="#D81313"/>
<path d="M40.5 62L55.6554 88.25H25.3446L40.5 62Z" fill="#981216"/>
<path d="M55.6554 88.2692L40.5 62H70.5L55.6554 88.2692Z" fill="#B40C13"/>
<path d="M24 97H90L83 110H31.5L24 97Z" fill="#B40C13"/>
<path d="M76.5 97H90L83 110L76.5 97Z" fill="#D81313"/>
<path d="M24 97H90L83 110H31.5L24 97Z" fill="#B40C13"/>
<path d="M76.5 97H90L83 110L76.5 97Z" fill="#D81313"/>
<path d="M49.6331 19.7185L11.1293 83.5006L4.08373 70.0173L34.1284 20.248L49.6331 19.7185Z" fill="#B40C13"/>
<path d="M19.0051 70.4542L11.1293 83.5006L4.08373 70.0173L19.0051 70.4542Z" fill="#D43F3C"/>
<path d="M49.6331 19.7185L11.1293 83.5006L4.08373 70.0173L34.1284 20.248L49.6331 19.7185Z" fill="#B40C13"/>
<path d="M19.0051 70.4542L11.1293 83.5006L4.08373 70.0173L19.0051 70.4542Z" fill="#D43F3C"/>
<path d="M73.2523 42.5532L79.2523 30L102 72L96.3093 85.4387L73.2523 42.5532Z" fill="#B40C13"/>
<path d="M73.2523 42.5532L79.2523 30L85.5 41.5L73.2523 42.5532Z" fill="#D43F3C"/>
<path d="M67.5 32L60.1388 19.25H74.8612L67.5 32Z" fill="#B41615"/>
<path d="M71 7L75.3301 14.5H66.6699L71 7Z" fill="#DA2222"/>
<path d="M89 28L80.3397 13L97.6603 13L89 28Z" fill="#D43F3C"/>
<path d="M109.5 21L106.469 15.75H112.531L109.5 21Z" fill="#DB2727"/>
<path d="M105.157 30.4004H96.8428L101 23.1992L105.157 30.4004Z" stroke="#DE4040" stroke-width="1.2"/>
<path d="M53.5752 2.59961L58.4248 2.59961L56 6.80078L53.5752 2.59961Z" stroke="#DE4040" stroke-width="1.2"/>
<path d="M125.869 69.8175V54.663C125.869 54.0153 125.516 53.7131 124.898 53.7131H123V50H127.459C129.445 50 130.284 50.8203 130.284 52.7632V69.6448C130.284 74.2214 133.242 76.9415 137.745 76.9415C142.247 76.9415 145.205 74.2214 145.205 69.6017V52.7632C145.205 50.8203 146.088 50 148.075 50H152.489V53.7131H150.591C149.973 53.7131 149.62 54.0153 149.62 54.663V69.8175C149.62 76.4666 144.896 81 137.789 81C130.637 81 125.869 76.4666 125.869 69.8175Z" fill="#6E6D72"/>
<path d="M155.427 74.351C155.427 67.3134 165.139 66.8816 168.891 66.8816H169.862V66.6657C169.862 62.8231 168.405 61.4415 164.918 61.4415C163.858 61.4415 161.254 61.7006 161.254 63.1253V64.3774H157.236V62.2187C157.236 58.6351 162.799 58.117 164.962 58.117C172.202 58.117 174.144 61.8301 174.144 66.6657V75.9485C174.144 76.5961 174.497 76.8983 175.115 76.8983H176.925V80.4819H172.908C170.922 80.4819 170.127 79.532 170.127 77.9777C170.127 77.2437 170.215 76.6825 170.215 76.6825H170.127C170.127 76.6825 168.361 81 163.02 81C159.179 81 155.427 78.7117 155.427 74.351ZM159.753 74.1351C159.753 75.9053 161.121 77.6323 163.947 77.6323C167.567 77.6323 169.906 73.9192 169.906 70.6811V69.9471H168.803C165.58 69.9471 159.753 70.1198 159.753 74.1351Z" fill="#6E6D72"/>
<path d="M181.779 77.7187V63.1685C181.779 62.5209 181.426 62.2187 180.808 62.2187H178.998V58.6351H183.192C185.178 58.6351 186.017 59.4554 186.017 61.3983V75.9485C186.017 76.5961 186.37 76.8983 186.988 76.8983H188.798V80.4819H184.604C182.618 80.4819 181.779 79.6616 181.779 77.7187Z" fill="#6E6D72"/>
<path d="M195.243 77.9777V52.9359C195.243 52.2883 194.89 51.9861 194.272 51.9861H192.374V50.2591H194.581C196.391 50.2591 197.141 50.993 197.141 52.7632V77.805C197.141 78.4526 197.494 78.7549 198.112 78.7549H209.943C210.561 78.7549 210.915 78.4526 210.915 77.805V75.6894H212.769V77.9777C212.769 79.7479 212.018 80.4819 210.208 80.4819H197.803C195.993 80.4819 195.243 79.7479 195.243 77.9777Z" fill="#7D7D81"/>
<path d="M215.091 74.7396C215.091 67.3997 224.847 67.3134 228.776 67.3134H230.233V67.0111C230.233 61.8733 228.423 60.0599 223.832 60.0599C222.684 60.0599 218.931 60.3621 218.931 62.1755V63.6435H217.077V61.6574C217.077 59.11 222.066 58.376 223.876 58.376C230.63 58.376 232.087 61.9596 232.087 66.5362V77.8914C232.087 78.539 232.44 78.8412 233.058 78.8412H234.956V80.4819H232.793C230.983 80.4819 230.233 79.7911 230.233 77.8482C230.233 76.6825 230.321 75.9053 230.321 75.9053H230.233C230.277 75.9053 228.334 81 222.596 81C219.02 81 215.091 79.0571 215.091 74.7396ZM217.033 74.61C217.033 76.8983 218.931 79.3162 222.684 79.3162C227.496 79.3162 230.233 74.4373 230.233 70.163V68.9972H228.82C225.068 68.9972 217.033 68.9972 217.033 74.61Z" fill="#7D7D81"/>
<path d="M239.708 80.4819V52.8496C239.708 52.2019 239.355 51.8997 238.737 51.8997H236.839V50.2591H239.002C240.812 50.2591 241.563 50.993 241.563 52.7632V61.2688C241.563 62.2618 241.474 63.039 241.474 63.039H241.563C241.563 63.039 243.373 58.376 249.465 58.376C255.38 58.376 259 62.9958 259 69.688C259 76.5529 254.894 81 249.111 81C243.549 81 241.563 76.337 241.563 76.337H241.474C241.474 76.337 241.563 77.1142 241.563 78.2368V80.4819H239.708ZM241.518 69.7312C241.518 74.5237 244.035 79.273 249.2 79.273C253.526 79.273 257.058 75.7326 257.058 69.688C257.058 63.8593 253.879 60.1462 249.376 60.1462C245.315 60.1462 241.518 62.9526 241.518 69.7312Z" fill="#7D7D81"/>
<path d="M182.791 50.1691C182.862 50.0492 183.039 50.0492 183.11 50.1691L185.579 54.3517C185.65 54.4717 185.561 54.6216 185.419 54.6216H180.481C180.34 54.6216 180.251 54.4717 180.322 54.3517L182.791 50.1691Z" fill="#E21D1D"/>
</svg>
