<svg width="113" height="110" viewBox="0 0 113 110" fill="none" xmlns="http://www.w3.org/2000/svg">
<path d="M70.5 62L85.6554 88.25H55.3446L70.5 62Z" fill="#D43F3C"/>
<path d="M55.5 36L70.5 62H40.5L55.5 36Z" fill="#D81313"/>
<path d="M40.5 62L55.6554 88.25H25.3446L40.5 62Z" fill="#981216"/>
<path d="M55.6554 88.2692L40.5 62H70.5L55.6554 88.2692Z" fill="#B40C13"/>
<path d="M24 97H90L83 110H31.5L24 97Z" fill="#B40C13"/>
<path d="M76.5 97H90L83 110L76.5 97Z" fill="#D81313"/>
<path d="M24 97H90L83 110H31.5L24 97Z" fill="#B40C13"/>
<path d="M76.5 97H90L83 110L76.5 97Z" fill="#D81313"/>
<path d="M49.6331 19.7185L11.1293 83.5006L4.08373 70.0173L34.1284 20.248L49.6331 19.7185Z" fill="#B40C13"/>
<path d="M19.0051 70.4542L11.1293 83.5006L4.08373 70.0173L19.0051 70.4542Z" fill="#D43F3C"/>
<path d="M49.6331 19.7185L11.1293 83.5006L4.08373 70.0173L34.1284 20.248L49.6331 19.7185Z" fill="#B40C13"/>
<path d="M19.0051 70.4542L11.1293 83.5006L4.08373 70.0173L19.0051 70.4542Z" fill="#D43F3C"/>
<path d="M73.2523 42.5532L79.2523 30L102 72L96.3093 85.4387L73.2523 42.5532Z" fill="#B40C13"/>
<path d="M73.2523 42.5532L79.2523 30L85.5 41.5L73.2523 42.5532Z" fill="#D43F3C"/>
<path d="M67.5 32L60.1388 19.25H74.8612L67.5 32Z" fill="#B41615"/>
<path d="M71 7L75.3301 14.5H66.6699L71 7Z" fill="#DA2222"/>
<path d="M89 28L80.3397 13L97.6603 13L89 28Z" fill="#D43F3C"/>
<path d="M109.5 21L106.469 15.75H112.531L109.5 21Z" fill="#DB2727"/>
<path d="M105.157 30.4004H96.8428L101 23.1992L105.157 30.4004Z" stroke="#DE4040" stroke-width="1.2"/>
<path d="M53.5752 2.59961L58.4248 2.59961L56 6.80078L53.5752 2.59961Z" stroke="#DE4040" stroke-width="1.2"/>
</svg>
